<svg width="400" height="120" viewBox="0 0 400 120" xmlns="http://www.w3.org/2000/svg">
  <defs>
    <style>
      @import url('https://fonts.googleapis.com/css2?family=Prompt:wght@800&amp;display=swap');
    </style>
    <linearGradient id="lineGradient" x1="0%" y1="0%" x2="0%" y2="100%">
      <stop offset="0%" style="stop-color:#1e3a5f;stop-opacity:0.6" />
      <stop offset="100%" style="stop-color:#ff6b35;stop-opacity:0.6" />
    </linearGradient>
  </defs>

  <!-- Icon: Letter S made from connected nodes -->
  <g transform="translate(20, 20)">
    <!-- Connection lines forming S shape -->
    <!-- Top curve -->
    <line x1="15" y1="10" x2="35" y2="10" stroke="#1e3a5f" stroke-width="2.5" opacity="0.5"/>
    <line x1="35" y1="10" x2="45" y2="18" stroke="#2d5f8d" stroke-width="2.5" opacity="0.5"/>
    <line x1="45" y1="18" x2="45" y2="28" stroke="#2d5f8d" stroke-width="2.5" opacity="0.5"/>
    <line x1="45" y1="28" x2="35" y2="35" stroke="#4a7ba7" stroke-width="2.5" opacity="0.5"/>

    <!-- Middle section -->
    <line x1="35" y1="35" x2="15" y2="35" stroke="#6a9bc3" stroke-width="2.5" opacity="0.5"/>

    <!-- Bottom curve -->
    <line x1="15" y1="35" x2="5" y2="42" stroke="#d9825b" stroke-width="2.5" opacity="0.5"/>
    <line x1="5" y1="42" x2="5" y2="52" stroke="#e6734a" stroke-width="2.5" opacity="0.5"/>
    <line x1="5" y1="52" x2="15" y2="60" stroke="#f26438" stroke-width="2.5" opacity="0.5"/>
    <line x1="15" y1="60" x2="35" y2="60" stroke="#ff6b35" stroke-width="2.5" opacity="0.5"/>

    <!-- Nodes (dots) forming S -->
    <!-- Top curve - blue tones -->
    <circle cx="15" cy="10" r="5" fill="#1e3a5f"/>
    <circle cx="35" cy="10" r="5" fill="#1e3a5f"/>
    <circle cx="45" cy="18" r="5" fill="#2d5f8d"/>
    <circle cx="45" cy="28" r="5" fill="#3d6fa0"/>

    <!-- Middle - transition -->
    <circle cx="35" cy="35" r="6" fill="#6a9bc3">
      <animate attributeName="r" values="6;9;6" dur="2s" repeatCount="indefinite"/>
      <animate attributeName="opacity" values="1;0.7;1" dur="2s" repeatCount="indefinite"/>
    </circle>
    <circle cx="15" cy="35" r="5" fill="#8ab0d0"/>

    <!-- Bottom curve - orange tones -->
    <circle cx="5" cy="42" r="5" fill="#d9825b"/>
    <circle cx="5" cy="52" r="5" fill="#e6734a"/>
    <circle cx="15" cy="60" r="5" fill="#ff6b35"/>
    <circle cx="35" cy="60" r="5" fill="#ff6b35"/>
  </g>

  <!-- Text: Sellio -->
  <text x="100" y="70" font-family="'Prompt', 'Segoe UI', 'Roboto', 'Arial', sans-serif" font-size="48" font-weight="800" fill="#1e3a5f">
    sell<tspan fill="#ff6b35">io</tspan>
  </text>

  <!-- Tagline -->
  <text x="102" y="90" font-family="'Segoe UI', 'Roboto', 'Arial', sans-serif" font-size="12" font-weight="400" fill="#64748b" letter-spacing="0.5">
    БОТЫ ДЛЯ ВАШЕГО БИЗНЕСА
  </text>
</svg>
